# xmcd CD database file generated by Grip 2.95
# 
# Track frame offsets:
#       150
#       19595
#       35895
#       55189
#       75338
#       95882
#       111954
#       134267
#       150692
#       166667
#       185358
#       204293
# 
# Disc length: 2911 seconds
# 
# Revision: 3
# Processed by: cddbd v1.4b42PL1 Copyright (c) Steve Scherf et al.
# Submitted via: Grip 2.95
# 
DISCID=940b5d0c
DTITLE=Robert Palmer - Rythm and Blues
DYEAR=1900
DGENRE=
TTITLE0=True Love
TTITLE1=No Problem
TTITLE2=I Choose You
TTITLE3=Stone Cold
TTITLE4=Sex Appeal
TTITLE5=Work to Make It Work 99
TTITLE6=All the Will in the World
TTITLE7=You're Not the Only One
TTITLE8=Mr. Wise Guy
TTITLE9=Let's Get It On 99
TTITLE10=Tennis
TTITLE11=Twenty Million Things
EXTD=
EXTT0=
EXTT1=
EXTT2=
EXTT3=
EXTT4=
EXTT5=
EXTT6=
EXTT7=
EXTT8=
EXTT9=
EXTT10=
EXTT11=
PLAYORDER=
